Coordinates
version=1
nRows=19
nColumns=24
inDegrees=yes

Units are S.I. units (second, meters, Newtons, ...)
If the header above contains a line with 'inDegrees', this indicates whether rotational values are in degrees (yes) or radians (no).

endheader
time	pelvis_tilt	pelvis_list	pelvis_rotation	pelvis_tx	pelvis_ty	pelvis_tz	hip_flexion_r	hip_adduction_r	hip_rotation_r	knee_angle_r	ankle_angle_r	subtalar_angle_r	mtp_angle_r	hip_flexion_l	hip_adduction_l	hip_rotation_l	knee_angle_l	ankle_angle_l	subtalar_angle_l	mtp_angle_l	lumbar_extension	lumbar_bending	lumbar_rotation
      1.25000000	     -3.48557175	      0.00000000	      0.00000000	      0.58188098	      1.00305218	      0.00000000	    -12.49577107	      0.00000000	      0.00000000	     -9.25588526	     16.24513927	      0.00000000	      0.00000000	     26.27000865	      0.00000000	      0.00000000	      1.00693010	     -7.90986344	      0.00000000	      0.00000000	      0.00000000	      0.00000000	      0.00000000
      1.26700000	     -3.57032536	      0.00000000	      0.00000000	      0.58359515	      1.00202946	      0.00000000	    -12.69365147	      0.00000000	      0.00000000	    -11.18799007	     16.35775946	      0.00000000	      0.00000000	     26.46159264	      0.00000000	      0.00000000	     -0.79169287	     -9.28996968	      0.00000000	      0.00000000	      0.00000000	      0.00000000	      0.00000000
      1.28300000	     -3.75692913	      0.00000000	      0.00000000	      0.58429363	      1.00124666	      0.00000000	    -12.28885429	      0.00000000	      0.00000000	    -13.98336718	     16.43565519	      0.00000000	      0.00000000	     26.75617179	      0.00000000	      0.00000000	     -2.66723939	    -10.91779019	      0.00000000	      0.00000000	      0.00000000	      0.00000000	      0.00000000
      1.30000000	     -3.84477354	      0.00000000	      0.00000000	      0.58637003	      1.00132392	      0.00000000	    -12.13192631	      0.00000000	      0.00000000	    -16.50482521	     15.82988059	      0.00000000	      0.00000000	     26.92914490	      0.00000000	      0.00000000	     -4.80233617	    -12.05453181	      0.00000000	      0.00000000	      0.00000000	      0.00000000	      0.00000000
      1.31700000	     -3.83699876	      0.00000000	      0.00000000	      0.58884937	      1.00214332	      0.00000000	    -11.51542954	      0.00000000	      0.00000000	    -20.04431924	     14.89205214	      0.00000000	      0.00000000	     26.93021425	      0.00000000	      0.00000000	     -6.96719911	    -12.67152847	      0.00000000	      0.00000000	      0.00000000	      0.00000000	      0.00000000
      1.33300000	     -3.78842925	      0.00000000	      0.00000000	      0.59147204	      1.00346783	      0.00000000	    -10.45207287	      0.00000000	      0.00000000	    -24.35476840	     13.40849204	      0.00000000	      0.00000000	     26.80613918	      0.00000000	      0.00000000	     -9.14045330	    -12.70151561	      0.00000000	      0.00000000	      0.00000000	      0.00000000	      0.00000000
      1.35000000	     -3.59699816	      0.00000000	      0.00000000	      0.59428519	      1.00548385	      0.00000000	     -9.03418801	      0.00000000	      0.00000000	    -29.34354111	     11.08906285	      0.00000000	      0.00000000	     26.34446904	      0.00000000	      0.00000000	    -11.12367628	    -12.21031048	      0.00000000	      0.00000000	      0.00000000	      0.00000000	      0.00000000
      1.36700000	     -3.45773634	      0.00000000	      0.00000000	      0.59687997	      1.00751773	      0.00000000	     -7.00824098	      0.00000000	      0.00000000	    -34.96501430	      7.88032343	      0.00000000	      0.00000000	     25.74667656	      0.00000000	      0.00000000	    -12.83517460	    -11.30759282	      0.00000000	      0.00000000	      0.00000000	      0.00000000	      0.00000000
      1.38300000	     -3.43013078	      0.00000000	      0.00000000	      0.59884467	      1.00946819	      0.00000000	     -4.38254780	      0.00000000	      0.00000000	    -40.89394521	      3.89293243	      0.00000000	      0.00000000	     25.03005340	      0.00000000	      0.00000000	    -14.08111188	    -10.20039453	      0.00000000	      0.00000000	      0.00000000	      0.00000000	      0.00000000
      1.40000000	     -3.39607183	      0.00000000	      0.00000000	      0.60011119	      1.01154671	      0.00000000	     -1.49326170	      0.00000000	      0.00000000	    -46.62928764	     -0.41506150	      0.00000000	      0.00000000	     24.13559447	      0.00000000	      0.00000000	    -14.95172912	     -8.97319978	      0.00000000	      0.00000000	      0.00000000	      0.00000000	      0.00000000
      1.41700000	     -3.33193214	      0.00000000	      0.00000000	      0.60113729	      1.01413650	      0.00000000	      1.37012397	      0.00000000	      0.00000000	    -51.73529583	     -4.12236457	      0.00000000	      0.00000000	     22.92627094	      0.00000000	      0.00000000	    -15.27708704	     -7.71404784	      0.00000000	      0.00000000	      0.00000000	      0.00000000	      0.00000000
      1.43300000	     -3.37224853	      0.00000000	      0.00000000	      0.60069272	      1.01655747	      0.00000000	      4.47173160	      0.00000000	      0.00000000	    -56.48521899	     -6.25986297	      0.00000000	      0.00000000	     21.71112916	      0.00000000	      0.00000000	    -15.17176803	     -6.64346798	      0.00000000	      0.00000000	      0.00000000	      0.00000000	      0.00000000
      1.45000000	     -3.31012294	      0.00000000	      0.00000000	      0.59997572	      1.01929230	      0.00000000	      7.36259104	      0.00000000	      0.00000000	    -60.64625130	     -6.41393866	      0.00000000	      0.00000000	     20.40469784	      0.00000000	      0.00000000	    -15.09124372	     -5.62030767	      0.00000000	      0.00000000	      0.00000000	      0.00000000	      0.00000000
      1.46700000	     -3.18427290	      0.00000000	      0.00000000	      0.60040706	      1.02274516	      0.00000000	      9.86190842	      0.00000000	      0.00000000	    -63.88278088	     -5.10808810	      0.00000000	      0.00000000	     18.64017993	      0.00000000	      0.00000000	    -14.37382781	     -4.73713009	      0.00000000	      0.00000000	      0.00000000	      0.00000000	      0.00000000
      1.48300000	     -3.13439361	      0.00000000	      0.00000000	      0.59938692	      1.02601177	      0.00000000	     12.53035394	      0.00000000	      0.00000000	    -66.59149789	     -3.20084278	      0.00000000	      0.00000000	     16.86838364	      0.00000000	      0.00000000	    -13.24263569	     -4.26963577	      0.00000000	      0.00000000	      0.00000000	      0.00000000	      0.00000000
      1.50000000	     -3.14437123	      0.00000000	      0.00000000	      0.59832002	      1.02869565	      0.00000000	     15.12227311	      0.00000000	      0.00000000	    -68.51549684	     -1.14056014	      0.00000000	      0.00000000	     15.27777016	      0.00000000	      0.00000000	    -12.35622534	     -3.64067526	      0.00000000	      0.00000000	      0.00000000	      0.00000000	      0.00000000
      1.51700000	     -3.12653346	      0.00000000	      0.00000000	      0.59711137	      1.03129892	      0.00000000	     17.55533235	      0.00000000	      0.00000000	    -69.59141854	      0.54119793	      0.00000000	      0.00000000	     13.33110765	      0.00000000	      0.00000000	    -10.73581323	     -3.43571751	      0.00000000	      0.00000000	      0.00000000	      0.00000000	      0.00000000
      1.53300000	     -3.08378478	      0.00000000	      0.00000000	      0.59604007	      1.03351061	      0.00000000	     19.78411024	      0.00000000	      0.00000000	    -69.84511500	      1.81163503	      0.00000000	      0.00000000	     11.33446390	      0.00000000	      0.00000000	     -9.08637050	     -3.23591484	      0.00000000	      0.00000000	      0.00000000	      0.00000000	      0.00000000
      1.55000000	     -3.24684889	      0.00000000	      0.00000000	      0.59377761	      1.03457836	      0.00000000	     22.20981908	      0.00000000	      0.00000000	    -69.46464150	      2.66570338	      0.00000000	      0.00000000	      9.85760160	      0.00000000	      0.00000000	     -7.90962463	     -2.85578916	      0.00000000	      0.00000000	      0.00000000	      0.00000000	      0.00000000
